<svg width="26" height="25" viewBox="0 0 26 25" fill="none" xmlns="http://www.w3.org/2000/svg">
<path d="M13.0015 1.07431e-06C5.81812 -0.00286787 0 5.74076 0 12.8299C0 18.4359 3.63959 23.2012 8.7083 24.9512C9.39091 25.1205 9.28634 24.6414 9.28634 24.3143V22.0909C5.34466 22.5471 5.1849 19.9707 4.92057 19.5404C4.3861 18.6395 3.12256 18.41 3.50017 17.9797C4.39772 17.5235 5.3127 18.0944 6.37292 19.6408C7.13976 20.7626 8.63568 20.5732 9.39381 20.3867C9.55938 19.7125 9.91375 19.1101 10.4017 18.6424C6.31773 17.9194 4.61557 15.4579 4.61557 12.5316C4.61557 11.1114 5.08904 9.80606 6.01855 8.75316C5.42599 7.01744 6.07374 5.53133 6.16088 5.31042C7.84851 5.16124 9.60295 6.5039 9.73947 6.61005C10.698 6.35472 11.7931 6.21988 13.0189 6.21988C14.2505 6.21988 15.3485 6.36046 16.3157 6.61866C16.644 6.37193 18.2706 5.21861 19.8391 5.35919C19.9234 5.5801 20.5566 7.03179 19.9989 8.74455C20.94 9.80032 21.4193 11.1172 21.4193 12.5402C21.4193 15.4722 19.7055 17.9367 15.6099 18.6482C15.9607 18.9889 16.2392 19.3953 16.4292 19.8435C16.6193 20.2918 16.7169 20.7729 16.7166 21.2589V24.4865C16.7398 24.7447 16.7166 25 17.1523 25C22.2965 23.2872 26 18.4875 26 12.8328C26 5.74076 20.179 1.07431e-06 13.0015 1.07431e-06Z" fill="#F5F5F5"/>
</svg>
