<svg width="22" height="22" viewBox="0 0 22 22" fill="none" xmlns="http://www.w3.org/2000/svg">
<g clip-path="url(#clip0)">
<path d="M6.92098 19.9377C15.2208 19.9377 19.7618 13.0597 19.7618 7.09689C19.7618 6.90353 19.7575 6.70587 19.7489 6.51251C20.6322 5.87369 21.3945 5.08242 22 4.17587C21.1773 4.5419 20.3038 4.78095 19.4094 4.88486C20.3512 4.32035 21.0563 3.43353 21.3941 2.3888C20.5082 2.91386 19.5393 3.28424 18.529 3.48408C17.8483 2.76078 16.9482 2.28187 15.968 2.1214C14.9879 1.96092 13.9821 2.12781 13.1063 2.59627C12.2304 3.06473 11.5333 3.80866 11.1227 4.71305C10.7121 5.61744 10.6108 6.63191 10.8346 7.59962C9.04062 7.5096 7.28561 7.04358 5.68332 6.23177C4.08102 5.41997 2.66722 4.2805 1.53355 2.88724C0.957366 3.88066 0.781052 5.05619 1.04044 6.17493C1.29984 7.29368 1.97547 8.27168 2.93004 8.91017C2.21341 8.88742 1.51248 8.69447 0.885156 8.34728V8.40314C0.884514 9.44565 1.24492 10.4562 1.90512 11.2631C2.56531 12.0699 3.48455 12.6232 4.50656 12.8289C3.84272 13.0106 3.14598 13.037 2.47027 12.9063C2.75867 13.8028 3.31978 14.587 4.07529 15.1493C4.8308 15.7116 5.74303 16.0241 6.68465 16.043C5.08606 17.2987 3.11133 17.9798 1.07852 17.9766C0.718013 17.976 0.357866 17.9539 0 17.9104C2.06512 19.2353 4.4674 19.939 6.92098 19.9377Z" fill="#F5F5F5"/>
</g>
<defs>
<clipPath id="clip0">
<rect width="22" height="22" fill="white"/>
</clipPath>
</defs>
</svg>
