<svg width="30" height="21" viewBox="0 0 30 21" fill="none" xmlns="http://www.w3.org/2000/svg">
<path d="M29.7012 4.53124C29.7012 4.53124 29.4082 2.47265 28.5059 1.56873C27.3633 0.379061 26.0859 0.373229 25.5 0.303249C21.3047 -1.82015e-07 15.0059 0 15.0059 0H14.9941C14.9941 0 8.69531 -1.82015e-07 4.5 0.303249C3.91406 0.373229 2.63672 0.379061 1.49414 1.56873C0.591797 2.47265 0.304688 4.53124 0.304688 4.53124C0.304688 4.53124 0 6.9514 0 9.36573V11.6284C0 14.0428 0.298828 16.4629 0.298828 16.4629C0.298828 16.4629 0.591797 18.5215 1.48828 19.4254C2.63086 20.6151 4.13086 20.5743 4.79883 20.7026C7.20117 20.93 15 21 15 21C15 21 21.3047 20.9883 25.5 20.6909C26.0859 20.6209 27.3633 20.6151 28.5059 19.4254C29.4082 18.5215 29.7012 16.4629 29.7012 16.4629C29.7012 16.4629 30 14.0486 30 11.6284V9.36573C30 6.9514 29.7012 4.53124 29.7012 4.53124ZM11.9004 14.3752V5.98334L20.0039 10.1938L11.9004 14.3752Z" fill="#F5F5F5"/>
</svg>
